basic-monospace.glyphspackage
{
glyphname = three;
layers = (
{
layerId = m01;
shapes = (
{
closed = 1;
nodes = (
(203,810,o),
(168,739,o),
(164,682,c),
(213,658,l),
(213,702,o),
(229,760,o),
(290,760,c),
(377,760,o),
(372,707,o),
(372,617,cs),
(372,556,o),
(357,456,o),
(231,456,c),
(231,406,l),
(361,406,o),
(396,359,o),
(396,222,cs),
(396,86,o),
(366,39,o),
(298,39,c),
(241,39,o),
(219,96,o),
(215,130,c),
(170,106,l),
(181,54,o),
(207,-10,o),
(298,-10,c),
(399,-10,o),
(447,56,o),
(447,222,cs),
(447,373,o),
(400,418,o),
(353,434,c),
(400,464,o),
(427,527,o),
(427,617,cs),
(427,667,o),
(432,810,o),
(290,810,c)
);
}
);
width = 600;
}
);
unicode = 51;
}
{
glyphname = B;
layers = (
{
layerId = m01;
shapes = (
{
closed = 1;
nodes = (
(120,800,l),
(120,50,l),
(60,50,l),
(60,0,l),
(245,0,ls),
(376,0,o),
(440,62,o),
(440,222,cs),
(440,373,o),
(367,418,o),
(320,434,c),
(367,464,o),
(398,518,o),
(398,608,cs),
(398,698,o),
(352,800,o),
(210,800,cs)
);
},
{
closed = 1;
nodes = (
(180,750,l),
(210,750,ls),
(297,750,o),
(338,707,o),
(338,607,cs),
(338,527,o),
(317,460,o),
(200,460,cs),
(180,460,l)
);
},
{
closed = 1;
nodes = (
(180,50,l),
(180,400,l),
(200,400,ls),
(318,400,o),
(380,352,o),
(380,222,cs),
(380,92,o),
(340,50,o),
(243,50,cs)
);
},
{
closed = 1;
nodes = (
(60,750,l),
(136,750,l),
(136,800,l),
(60,800,l)
);
}
);
width = 600;
},
{
associatedMasterId = m01;
layerId = "5A63293C-0CC5-4D07-B318-6B35A0CAB80B";
name = "8. Aug 23, 19:14";
shapes = (
{
closed = 1;
nodes = (
(140,800,l),
(140,0,l),
(200,0,l),
(200,380,l),
(270,380,ls),
(390,380,o),
(495,421,o),
(495,581,cs),
(495,741,o),
(400,800,o),
(280,800,cs)
);
},
{
closed = 1;
nodes = (
(200,750,l),
(280,750,ls),
(385,750,o),
(435,690,o),
(435,580,cs),
(435,470,o),
(375,430,o),
(270,430,cs),
(200,430,l)
);
},
{
closed = 1;
nodes = (
(313,0,l),
(433,0,o),
(548,53,o),
(548,213,cs),
(548,373,o),
(433,432,o),
(313,432,c),
(313,382,l),
(418,382,o),
(488,322,o),
(488,212,cs),
(488,102,o),
(418,50,o),
(313,50,c)
);
},
{
closed = 1;
nodes = (
(74,0,l),
(315,0,l),
(315,50,l),
(74,50,l)
);
}
);
width = 600;
}
);
unicode = 66;
}
{
glyphname = H;
layers = (
{
layerId = m01;
shapes = (
{
closed = 1;
nodes = (
(50,0,l),
(110,0,l),
(110,800,l),
(50,800,l)
);
},
{
closed = 1;
nodes = (
(386,0,l),
(446,0,l),
(446,800,l),
(386,800,l)
);
},
{
closed = 1;
nodes = (
(72,417,l),
(426,417,l),
(426,467,l),
(72,467,l)
);
}
);
width = 496;
}
);
unicode = 72;
}
{
glyphname = J;
layers = (
{
layerId = m01;
shapes = (
{
closed = 1;
nodes = (
(301,380,ls),
(302,147,o),
(279,50,o),
(194,50,cs),
(109,50,o),
(95,148,o),
(90,269,c),
(30,257,l),
(40,95,o),
(74,0,o),
(194,0,cs),
(311,0,o),
(358,88,o),
(361,380,cs),
(361,800,l),
(301,800,l)
);
},
{
closed = 1;
nodes = (
(220,757,l),
(470,757,l),
(470,807,l),
(220,807,l)
);
}
);
width = 600;
}
);
unicode = 74;
}
{
glyphname = L;
layers = (
{
layerId = m01;
shapes = (
{
closed = 1;
nodes = (
(140,0,l),
(200,0,l),
(200,800,l),
(140,800,l)
);
},
{
closed = 1;
nodes = (
(140,-3,l),
(460,-3,l),
(460,47,l),
(140,47,l)
);
}
);
width = 600;
}
);
unicode = 76;
}
{
glyphname = M;
layers = (
{
layerId = m01;
shapes = (
{
closed = 1;
nodes = (
(72,0,l),
(132,0,l),
(132,678,l),
(253,289,l),
(256,289,l),
(368,678,l),
(368,0,l),
(428,0,l),
(428,800,l),
(358,800,l),
(256,450,l),
(253,450,l),
(142,800,l),
(72,800,l)
);
}
);
width = 600;
}
);
unicode = 77;
}
{
glyphname = N;
layers = (
{
layerId = m01;
shapes = (
{
closed = 1;
nodes = (
(50,0,l),
(110,0,l),
(110,800,l),
(50,800,l)
);
},
{
closed = 1;
nodes = (
(386,0,l),
(446,0,l),
(446,810,l),
(386,810,l)
);
},
{
closed = 1;
nodes = (
(110,800,l),
(67,775,l),
(386,0,l),
(428,30,l)
);
}
);
width = 496;
}
);
metricLeft = "=H";
metricRight = "=H";
unicode = 78;
}
{
glyphname = O;
kernLeft = O;
kernRight = O;
layers = (
{
layerId = m01;
shapes = (
{
closed = 1;
nodes = (
(420,0,o),
(465,97,o),
(465,401,cs),
(465,712,o),
(420,800,o),
(300,800,cs),
(178,800,o),
(135,704,o),
(135,401,cs),
(135,89,o),
(180,0,o),
(300,0,cs)
);
},
{
closed = 1;
nodes = (
(215,50,o),
(195,127,o),
(195,401,cs),
(195,667,o),
(215,751,o),
(300,751,cs),
(385,751,o),
(405,673,o),
(405,401,cs),
(405,133,o),
(385,50,o),
(300,50,cs)
);
}
);
width = 500;
}
);
unicode = 79;
}
{
glyphname = R;
layers = (
{
layerId = m01;
shapes = (
{
closed = 1;
nodes = (
(143,800,l),
(143,0,l),
(203,0,l),
(203,350,l),
(232,350,ls),
(352,350,o),
(457,411,o),
(457,571,cs),
(457,731,o),
(362,800,o),
(242,800,cs)
);
},
{
closed = 1;
nodes = (
(203,750,l),
(242,750,ls),
(347,750,o),
(397,680,o),
(397,570,cs),
(397,460,o),
(337,400,o),
(232,400,cs),
(203,400,l)
);
},
{
closed = 1;
nodes = (
(413,0,l),
(473,28,l),
(347,408,l),
(303,379,l)
);
}
);
width = 500;
}
);
unicode = 82;
}
{
glyphname = T;
layers = (
{
layerId = m01;
shapes = (
{
closed = 1;
nodes = (
(260,0,l),
(320,0,l),
(320,800,l),
(260,800,l)
);
},
{
closed = 1;
nodes = (
(120,757,l),
(470,757,l),
(470,807,l),
(120,807,l)
);
}
);
width = 600;
}
);
unicode = 84;
}
{
glyphname = U;
layers = (
{
layerId = m01;
shapes = (
{
closed = 1;
nodes = (
(401,802,l),
(401,748,o),
(397,556,o),
(397,402,cs),
(397,134,o),
(382,51,o),
(302,51,cs),
(217,51,o),
(197,128,o),
(197,402,cs),
(197,553,o),
(200,750,o),
(200,803,c),
(140,803,l),
(140,739,o),
(137,539,o),
(137,402,cs),
(137,90,o),
(176,1,o),
(303,1,cs),
(424,1,o),
(457,98,o),
(457,402,cs),
(457,544,o),
(461,736,o),
(461,801,c)
);
}
);
width = 600;
}
);
unicode = 85;
}
{
glyphname = Z;
layers = (
{
layerId = m01;
shapes = (
{
closed = 1;
nodes = (
(110,47,l),
(171,47,l),
(450,757,l),
(391,757,l)
);
},
{
closed = 1;
nodes = (
(100,757,l),
(450,757,l),
(450,807,l),
(110,807,l)
);
},
{
closed = 1;
nodes = (
(110,-3,l),
(450,-3,l),
(460,47,l),
(110,47,l)
);
}
);
width = 600;
}
);
unicode = 90;
}
{
glyphname = a;
layers = (
{
layerId = m01;
shapes = (
{
closed = 1;
nodes = (
(497,9,l),
(322,700,l),
(261,700,l),
(103,9,l),
(159,0,l),
(292,621,l),
(441,0,l)
);
},
{
closed = 1;
nodes = (
(187,236,l),
(416,236,l),
(416,286,l),
(187,286,l)
);
}
);
width = 500;
}
);
unicode = 97;
}
{
glyphname = b;
layers = (
{
layerId = m01;
shapes = (
{
closed = 1;
nodes = (
(166,700,l),
(166,44,l),
(114,44,l),
(114,0,l),
(276,0,ls),
(390,0,o),
(446,54,o),
(446,194,cs),
(446,326,o),
(382,366,o),
(341,380,c),
(382,406,o),
(410,453,o),
(410,532,cs),
(410,611,o),
(369,700,o),
(245,700,cs)
);
},
{
closed = 1;
nodes = (
(219,656,l),
(245,656,ls),
(321,656,o),
(357,619,o),
(357,531,cs),
(357,461,o),
(339,403,o),
(236,403,cs),
(219,403,l)
);
},
{
closed = 1;
nodes = (
(219,44,l),
(219,350,l),
(236,350,ls),
(340,350,o),
(394,308,o),
(394,194,cs),
(394,81,o),
(359,44,o),
(274,44,cs)
);
},
{
closed = 1;
nodes = (
(114,656,l),
(180,656,l),
(180,700,l),
(114,700,l)
);
}
);
width = 500;
}
);
unicode = 98;
}
{
glyphname = c;
layers = (
{
layerId = m01;
shapes = (
{
closed = 1;
nodes = (
(372,158,l),
(362,67,o),
(352,50,o),
(303,50,cs),
(247,50,o),
(234,99,o),
(234,304,c),
(234,504,o),
(250,550,o),
(305,550,cs),
(345,550,o),
(362,532,o),
(371,459,c),
(426,471,l),
(411,574,o),
(366,600,o),
(305,600,cs),
(215,600,o),
(174,531,o),
(174,304,cs),
(174,70,o),
(213,0,o),
(303,0,cs),
(364,0,o),
(413,26,o),
(427,146,c)
);
}
);
width = 600;
}
);
unicode = 99;
}
{
glyphname = d;
layers = (
{
layerId = m01;
shapes = (
{
closed = 1;
nodes = (
(173,0,l),
(228,0,l),
(228,700,l),
(173,700,l)
);
},
{
closed = 1;
nodes = (
(138,0,l),
(308,0,l),
(414,0,o),
(449,90,o),
(449,356,cs),
(449,628,o),
(412,700,o),
(301,700,cs),
(248,700,o),
(138,700,o),
(138,700,c),
(138,656,l),
(304,650,l),
(376,650,o),
(399,594,o),
(399,356,cs),
(399,121,o),
(377,50,o),
(307,50,c),
(138,44,l)
);
}
);
width = 500;
}
);
unicode = 100;
}
{
glyphname = e;
layers = (
{
layerId = m01;
shapes = (
{
closed = 1;
nodes = (
(100,0,l),
(155,0,l),
(155,700,l),
(100,700,l)
);
},
{
closed = 1;
nodes = (
(128,650,l),
(364,650,l),
(364,700,l),
(128,700,l)
);
},
{
closed = 1;
nodes = (
(128,0,l),
(373,0,l),
(373,50,l),
(128,50,l)
);
},
{
closed = 1;
nodes = (
(128,337,l),
(329,337,l),
(329,387,l),
(128,387,l)
);
}
);
width = 500;
}
);
unicode = 101;
}
{
glyphname = g;
layers = (
{
layerId = m01;
shapes = (
{
closed = 1;
nodes = (
(421,290,l),
(309,290,l),
(309,240,l),
(366,240,l),
(366,107,l),
(359,70,o),
(350,50,o),
(305,50,cs),
(242,50,o),
(235,99,o),
(235,304,cs),
(235,504,o),
(242,550,o),
(305,550,cs),
(353,550,o),
(362,533,o),
(371,460,c),
(426,472,l),
(411,575,o),
(366,600,o),
(305,600,cs),
(215,600,o),
(174,531,o),
(174,304,cs),
(174,70,o),
(215,0,o),
(305,0,cs),
(366,0,o),
(409,36,o),
(421,107,c)
);
}
);
width = 600;
},
{
associatedMasterId = m01;
layerId = "B2D5F78F-2A4C-440D-9BCC-A633FBCF54F4";
name = "30. Aug 23, 14:10";
shapes = (
{
closed = 1;
nodes = (
(312,107,l),
(303,67,o),
(296,50,o),
(251,50,cs),
(188,50,o),
(181,99,o),
(181,304,cs),
(181,504,o),
(188,550,o),
(251,550,cs),
(299,550,o),
(308,533,o),
(317,460,c),
(372,472,l),
(357,575,o),
(312,600,o),
(251,600,cs),
(161,600,o),
(120,531,o),
(120,304,cs),
(120,70,o),
(161,0,o),
(251,0,cs),
(312,0,o),
(355,36,o),
(367,107,c)
);
},
{
closed = 1;
nodes = (
(312,107,l),
(367,107,l),
(363,290,l),
(312,290,l)
);
},
{
closed = 1;
nodes = (
(363,240,l),
(363,290,l),
(255,290,l),
(255,240,l)
);
}
);
width = 600;
}
);
unicode = 103;
}
{
glyphname = h;
layers = (
{
layerId = m01;
shapes = (
{
closed = 1;
nodes = (
(164,0,l),
(219,0,l),
(219,700,l),
(164,700,l)
);
},
{
closed = 1;
nodes = (
(382,0,l),
(437,0,l),
(437,700,l),
(382,700,l)
);
},
{
closed = 1;
nodes = (
(201,332,l),
(401,332,l),
(401,382,l),
(201,382,l)
);
}
);
width = 500;
}
);
unicode = 104;
}
{
glyphname = i;
layers = (
{
layerId = m01;
shapes = (
{
closed = 1;
nodes = (
(265,0,l),
(320,0,l),
(320,691,l),
(265,691,l)
);
},
{
closed = 1;
nodes = (
(170,647,l),
(430,647,l),
(430,697,l),
(170,697,l)
);
},
{
closed = 1;
nodes = (
(170,0,l),
(430,0,l),
(430,50,l),
(170,50,l)
);
}
);
width = 500;
}
);
unicode = 105;
}
{
glyphname = j;
layers = (
{
layerId = m01;
shapes = (
{
closed = 1;
nodes = (
(400,330,ls),
(401,128,o),
(380,50,o),
(307,50,cs),
(233,50,o),
(222,129,o),
(217,234,c),
(162,223,l),
(171,82,o),
(203,0,o),
(307,0,cs),
(409,0,o),
(453,76,o),
(455,330,cs),
(452,694,l),
(400,694,l)
);
},
{
closed = 1;
nodes = (
(330,650,l),
(547,650,l),
(547,700,l),
(330,700,l)
);
}
);
width = 500;
}
);
unicode = 106;
}
{
glyphname = k;
layers = (
{
layerId = m01;
shapes = (
{
closed = 1;
nodes = (
(160,0,l),
(215,0,l),
(215,359,l),
(244,359,l),
(418,0,l),
(469,25,l),
(286,389,l),
(453,667,l),
(401,691,l),
(242,409,l),
(215,409,l),
(215,700,l),
(160,700,l)
);
}
);
width = 500;
}
);
unicode = 107;
}
{
glyphname = l;
layers = (
{
layerId = m01;
shapes = (
{
closed = 1;
nodes = (
(110,0,l),
(390,0,l),
(390,50,l),
(165,50,l),
(165,699,l),
(110,700,l)
);
}
);
width = 500;
}
);
unicode = 108;
}
{
glyphname = m;
layers = (
{
layerId = m01;
shapes = (
{
closed = 1;
nodes = (
(146,0,l),
(201,0,l),
(201,586,l),
(303,250,l),
(305,250,l),
(399,586,l),
(399,0,l),
(454,0,l),
(454,700,l),
(393,700,l),
(304,410,l),
(300,410,l),
(207,700,l),
(146,700,l)
);
}
);
width = 500;
}
);
unicode = 109;
}
{
glyphname = o;
layers = (
{
layerId = m01;
shapes = (
{
closed = 1;
nodes = (
(386,0,o),
(430,73,o),
(430,301,cs),
(430,534,o),
(390,600,o),
(300,600,cs),
(208,600,o),
(170,528,o),
(170,301,cs),
(170,67,o),
(206,0,o),
(296,0,cs)
);
},
{
closed = 1;
nodes = (
(241,50,o),
(230,95,o),
(230,301,cs),
(230,501,o),
(245,550,o),
(300,550,cs),
(355,550,o),
(370,505,o),
(370,301,cs),
(370,99,o),
(351,50,o),
(296,50,cs)
);
}
);
width = 600;
}
);
unicode = 111;
}
{
glyphname = p;
layers = (
{
layerId = m01;
shapes = (
{
closed = 1;
nodes = (
(163,700,l),
(163,0,l),
(218,0,l),
(218,306,l),
(244,306,ls),
(349,306,o),
(437,360,o),
(437,500,cs),
(437,640,o),
(354,700,o),
(249,700,cs)
);
},
{
closed = 1;
nodes = (
(218,650,l),
(252,650,ls),
(344,650,o),
(381,595,o),
(381,499,cs),
(381,403,o),
(334,355,o),
(244,355,cs),
(218,355,l)
);
}
);
width = 500;
}
);
unicode = 112;
}
{
glyphname = q;
layers = (
{
layerId = m01;
shapes = (
{
closed = 1;
nodes = (
);
},
{
closed = 1;
nodes = (
(317,121,l),
(435,0,l),
(466,32,l),
(347,151,l)
);
},
{
closed = 1;
nodes = (
(402,0,o),
(439,85,o),
(439,351,cs),
(439,623,o),
(407,700,o),
(302,700,cs),
(195,700,o),
(164,616,o),
(164,351,cs),
(164,78,o),
(192,0,o),
(297,0,cs)
);
},
{
closed = 1;
nodes = (
(233,50,o),
(219,111,o),
(219,351,cs),
(219,584,o),
(238,650,o),
(302,650,cs),
(366,650,o),
(384,589,o),
(384,351,cs),
(384,116,o),
(361,50,o),
(297,50,cs)
);
}
);
width = 500;
}
);
unicode = 113;
}
{
glyphname = r;
layers = (
{
layerId = m01;
shapes = (
{
closed = 1;
nodes = (
(164,700,l),
(164,0,l),
(219,0,l),
(219,306,l),
(245,306,ls),
(350,306,o),
(438,360,o),
(438,500,cs),
(438,640,o),
(355,700,o),
(250,700,cs)
);
},
{
closed = 1;
nodes = (
(219,650,l),
(253,650,ls),
(345,650,o),
(383,595,o),
(383,499,cs),
(383,402,o),
(336,356,o),
(245,356,cs),
(219,356,l)
);
},
{
closed = 1;
nodes = (
(398,0,l),
(452,25,l),
(342,357,l),
(302,332,l)
);
}
);
width = 500;
}
);
unicode = 114;
}
{
glyphname = s;
layers = (
{
layerId = m01;
shapes = (
{
closed = 1;
nodes = (
(183,91,o),
(211,0,o),
(301,0,cs),
(391,0,o),
(423,93,o),
(423,165,cs),
(423,271,o),
(355,310,o),
(312,343,cs),
(282,365,o),
(242,381,o),
(242,447,cs),
(242,495,o),
(238,550,o),
(301,550,cs),
(364,550,o),
(360,502,o),
(368,449,c),
(423,461,l),
(415,523,o),
(391,600,o),
(301,600,cs),
(211,600,o),
(182,520,o),
(182,447,cs),
(182,354,o),
(256,313,o),
(299,280,cs),
(329,258,o),
(364,247,o),
(364,165,cs),
(364,127,o),
(364,50,o),
(301,50,cs),
(238,50,o),
(238,116,o),
(232,168,c),
(177,155,l)
);
}
);
width = 600;
}
);
unicode = 115;
}
{
glyphname = t;
layers = (
{
layerId = m01;
shapes = (
{
closed = 1;
nodes = (
(263,0,l),
(318,0,l),
(318,694,l),
(263,694,l)
);
},
{
closed = 1;
nodes = (
(143,650,l),
(447,650,l),
(447,700,l),
(143,700,l)
);
}
);
width = 500;
}
);
unicode = 116;
}
{
glyphname = u;
layers = (
{
layerId = m01;
shapes = (
{
closed = 1;
nodes = (
(369,600,l),
(369,560,o),
(371,415,o),
(371,300,cs),
(371,99,o),
(355,50,o),
(300,50,cs),
(245,50,o),
(230,99,o),
(230,300,cs),
(230,413,o),
(234,561,o),
(234,600,c),
(176,600,l),
(176,552,o),
(173,403,o),
(173,300,cs),
(173,73,o),
(195,0,o),
(300,0,cs),
(405,0,o),
(428,73,o),
(428,300,cs),
(428,406,o),
(426,552,o),
(426,600,c)
);
}
);
width = 600;
}
);
unicode = 117;
}
{
glyphname = x;
layers = (
{
layerId = m01;
shapes = (
{
closed = 1;
nodes = (
(97,20,l),
(142,0,l),
(400,680,l),
(354,700,l)
);
},
{
closed = 1;
nodes = (
(100,680,l),
(357,0,l),
(403,20,l),
(146,700,l)
);
}
);
width = 600;
}
);
unicode = 120;
}
{
glyphname = y;
layers = (
{
layerId = m01;
shapes = (
{
closed = 1;
nodes = (
(290,367,l),
(164,700,l),
(111,691,l),
(262,304,l),
(316,304,l),
(483,691,l),
(430,700,l)
);
},
{
closed = 1;
nodes = (
(262,0,l),
(316,0,l),
(316,304,l),
(262,304,l)
);
}
);
width = 500;
}
);
unicode = 121;
}
